<svg width="58" height="58" viewBox="0 0 58 58" fill="none" xmlns="http://www.w3.org/2000/svg">
<g clip-path="url(#clip0_0_1622)">
<path d="M6.76665 21.2666C6.23257 21.2666 5.79999 20.834 5.79999 20.3V11.6C5.79999 10.0001 7.10015 8.69995 8.69999 8.69995H33.8333C34.3432 8.69995 34.8435 8.83287 35.2833 9.08903C35.7449 9.35728 35.9044 9.94695 35.6362 10.4085C35.3703 10.8701 34.7782 11.0296 34.3167 10.7614C34.1692 10.6768 34.0025 10.6309 33.8333 10.6309H8.69999C8.1659 10.6309 7.73332 11.0635 7.73332 11.5975V20.2975C7.73332 20.8316 7.30074 21.2642 6.76665 21.2642V21.2666Z" fill="#606060"/>
<path d="M33.8333 58H8.69999C7.10015 58 5.79999 56.6998 5.79999 55.1V49.3C5.79999 48.7659 6.23257 48.3333 6.76665 48.3333C7.30074 48.3333 7.73332 48.7659 7.73332 49.3V55.1C7.73332 55.6341 8.1659 56.0667 8.69999 56.0667H33.8333C34.3674 56.0667 34.8 55.6341 34.8 55.1V31.9C34.8 31.3659 35.2326 30.9333 35.7667 30.9333C36.3007 30.9333 36.7333 31.3659 36.7333 31.9V55.1C36.7333 56.6998 35.4332 58 33.8333 58Z" fill="#606060"/>
<path d="M35.7667 53.1667H6.76665C6.23257 53.1667 5.79999 52.7341 5.79999 52.2001C5.79999 51.666 6.23257 51.2334 6.76665 51.2334H35.7667C36.3007 51.2334 36.7333 51.666 36.7333 52.2001C36.7333 52.7341 36.3007 53.1667 35.7667 53.1667Z" fill="#606060"/>
<path d="M9.66667 29.9667H3.86667C1.73517 29.9667 0 28.2316 0 26.1001C0 23.9686 1.73517 22.2334 3.86667 22.2334H9.66667C11.7982 22.2334 13.5333 23.9686 13.5333 26.1001C13.5333 28.2316 11.7982 29.9667 9.66667 29.9667ZM3.86667 24.1667C2.80092 24.1667 1.93333 25.0343 1.93333 26.1001C1.93333 27.1658 2.80092 28.0334 3.86667 28.0334H9.66667C10.7324 28.0334 11.6 27.1658 11.6 26.1001C11.6 25.0343 10.7324 24.1667 9.66667 24.1667H3.86667Z" fill="#606060"/>
<path d="M9.66667 35.7668H3.86667C1.73517 35.7668 0 34.0316 0 31.9001C0 29.7686 1.73517 28.0334 3.86667 28.0334H9.66667C11.7982 28.0334 13.5333 29.7686 13.5333 31.9001C13.5333 34.0316 11.7982 35.7668 9.66667 35.7668ZM3.86667 29.9668C2.80092 29.9668 1.93333 30.8344 1.93333 31.9001C1.93333 32.9659 2.80092 33.8334 3.86667 33.8334H9.66667C10.7324 33.8334 11.6 32.9659 11.6 31.9001C11.6 30.8344 10.7324 29.9668 9.66667 29.9668H3.86667Z" fill="#606060"/>
<path d="M9.66667 41.5666H3.86667C1.73517 41.5666 0 39.8314 0 37.6999C0 35.5684 1.73517 33.8333 3.86667 33.8333H9.66667C11.7982 33.8333 13.5333 35.5684 13.5333 37.6999C13.5333 39.8314 11.7982 41.5666 9.66667 41.5666ZM3.86667 35.7666C2.80092 35.7666 1.93333 36.6342 1.93333 37.6999C1.93333 38.7657 2.80092 39.6333 3.86667 39.6333H9.66667C10.7324 39.6333 11.6 38.7657 11.6 37.6999C11.6 36.6342 10.7324 35.7666 9.66667 35.7666H3.86667Z" fill="#606060"/>
<path d="M9.66667 47.3666H3.86667C1.73517 47.3666 0 45.6315 0 43.5C0 41.3685 1.73517 39.6333 3.86667 39.6333H9.66667C11.7982 39.6333 13.5333 41.3685 13.5333 43.5C13.5333 45.6315 11.7982 47.3666 9.66667 47.3666ZM3.86667 41.5666C2.80092 41.5666 1.93333 42.4342 1.93333 43.5C1.93333 44.5657 2.80092 45.4333 3.86667 45.4333H9.66667C10.7324 45.4333 11.6 44.5657 11.6 43.5C11.6 42.4342 10.7324 41.5666 9.66667 41.5666H3.86667Z" fill="#606060"/>
<path d="M49.3 37.6999C48.9351 37.6999 48.5871 37.4921 48.4228 37.1417L43.7393 27.1053C42.6324 24.7321 40.2254 23.1999 37.6082 23.1999H28.5167C27.1851 23.1999 26.1 24.285 26.1 25.6166C26.1 26.9482 27.1851 28.0333 28.5167 28.0333H38.6667C39.2008 28.0333 39.6334 28.4659 39.6334 28.9999C39.6334 29.534 39.2008 29.9666 38.6667 29.9666H28.5167C26.1169 29.9666 24.1667 28.0164 24.1667 25.6166C24.1667 23.2169 26.1169 21.2666 28.5167 21.2666H37.6082C40.9746 21.2666 44.0679 23.2362 45.4914 26.2884L50.1749 36.3249C50.3996 36.8082 50.1918 37.3834 49.7084 37.6105C49.5755 37.6709 49.4378 37.7024 49.3 37.7024V37.6999Z" fill="#606060"/>
<path d="M41.3999 56.8666C41.1534 56.8666 40.9045 56.7723 40.716 56.5838L35.2471 51.1173C35.0659 50.9361 34.9644 50.6896 34.9644 50.4334C34.9644 50.1772 35.0659 49.9307 35.2471 49.7495L49.1333 35.8633C49.3145 35.6821 49.561 35.5806 49.8172 35.5806C50.0734 35.5806 50.3199 35.6821 50.5011 35.8633L55.97 41.3322C56.347 41.7092 56.347 42.3207 55.97 42.7001L42.0839 56.5838C41.8954 56.7723 41.6489 56.8666 41.3999 56.8666ZM37.2989 50.4334L41.3999 54.5345L53.9183 42.0162L49.8172 37.9151L37.2989 50.4334Z" fill="#606060"/>
<path d="M24.1667 15.4668H18.3667C17.8326 15.4668 17.4 15.0342 17.4 14.5001C17.4 13.966 17.8326 13.5334 18.3667 13.5334H24.1667C24.7008 13.5334 25.1334 13.966 25.1334 14.5001C25.1334 15.0342 24.7008 15.4668 24.1667 15.4668Z" fill="#606060"/>
<path d="M19.3333 39.6332C19.0675 39.6332 18.8041 39.5245 18.6156 39.3142C18.3038 38.9687 18.2821 38.4515 18.5624 38.0817C18.589 38.0455 21.3247 34.4398 24.3431 30.1672C24.65 29.7322 25.2542 29.6282 25.6916 29.9352C26.1266 30.2445 26.2305 30.8462 25.9236 31.2837C24.9231 32.6998 23.954 34.0411 23.1033 35.2083C25.1043 33.971 27.6563 32.3857 30.421 30.6553C30.8729 30.3726 31.4698 30.5079 31.7526 30.9622C32.0353 31.4142 31.9 32.0111 31.4457 32.2938C25.1068 36.2644 19.8892 39.4592 19.8384 39.4907C19.6813 39.5873 19.5073 39.6332 19.3333 39.6332Z" fill="url(#paint0_linear_0_1622)"/>
<path d="M45.4236 23.1999C45.1095 23.1999 44.8001 23.0477 44.6141 22.7625C44.3216 22.3154 44.4449 21.7161 44.892 21.4237C51.1777 17.3033 53.2077 15.7276 53.8022 15.1331C55.2619 13.671 56.0666 11.7305 56.0666 9.6642C56.0666 7.59795 55.2619 5.65737 53.8022 4.19528C52.3401 2.73562 50.3996 1.93087 48.3333 1.93087C46.2671 1.93087 44.3265 2.73562 42.8644 4.19528C41.9436 5.11603 39.5366 8.56945 33.3016 19.7997C33.0431 20.2661 32.4558 20.4353 31.987 20.1743C31.5206 19.9157 31.3514 19.326 31.6124 18.8596C36.7067 9.68595 40.0321 4.29195 41.499 2.82745C43.3236 1.00045 45.7523 -0.00488281 48.3333 -0.00488281C50.9143 -0.00488281 53.3431 1.00045 55.1676 2.82745C56.9946 4.65203 58 7.08078 58 9.66178C58 12.2428 56.9946 14.6715 55.1676 16.4961C54.1961 17.4676 51.1801 19.6064 45.9505 23.0356C45.7861 23.1419 45.6025 23.1927 45.4212 23.1927L45.4236 23.1999Z" fill="url(#paint1_linear_0_1622)"/>
<path d="M50.2667 15.4667H46.4C45.8659 15.4667 45.4333 15.0341 45.4333 14.5V12.5667H43.5C42.9659 12.5667 42.5333 12.1341 42.5333 11.6V7.73337C42.5333 7.19928 42.9659 6.7667 43.5 6.7667H45.4333V4.83337C45.4333 4.29928 45.8659 3.8667 46.4 3.8667H50.2667C50.8007 3.8667 51.2333 4.29928 51.2333 4.83337V6.7667H53.1667C53.7007 6.7667 54.1333 7.19928 54.1333 7.73337V11.6C54.1333 12.1341 53.7007 12.5667 53.1667 12.5667H51.2333V14.5C51.2333 15.0341 50.8007 15.4667 50.2667 15.4667ZM47.3667 13.5334H49.3V11.6C49.3 11.0659 49.7326 10.6334 50.2667 10.6334H52.2V8.70003H50.2667C49.7326 8.70003 49.3 8.26745 49.3 7.73337V5.80003H47.3667V7.73337C47.3667 8.26745 46.9341 8.70003 46.4 8.70003H44.4667V10.6334H46.4C46.9341 10.6334 47.3667 11.0659 47.3667 11.6V13.5334Z" fill="url(#paint2_linear_0_1622)"/>
</g>
<defs>
<linearGradient id="paint0_linear_0_1622" x1="22.4183" y1="28.6659" x2="29.4459" y2="31.6797" gradientUnits="userSpaceOnUse">
<stop stop-color="#88BCFF"/>
<stop offset="1" stop-color="#7691FF"/>
</linearGradient>
<linearGradient id="paint1_linear_0_1622" x1="39.4271" y1="-2.57313" x2="53.8779" y2="2.5925" gradientUnits="userSpaceOnUse">
<stop stop-color="#88BCFF"/>
<stop offset="1" stop-color="#7691FF"/>
</linearGradient>
<linearGradient id="paint2_linear_0_1622" x1="46.0065" y1="2.58285" x2="52.5017" y2="4.61515" gradientUnits="userSpaceOnUse">
<stop stop-color="#88BCFF"/>
<stop offset="1" stop-color="#7691FF"/>
</linearGradient>
<clipPath id="clip0_0_1622">
<rect width="58" height="58" fill="white"/>
</clipPath>
</defs>
</svg>
