<svg width="50" height="58" viewBox="0 0 50 58" fill="none" xmlns="http://www.w3.org/2000/svg">
<g clip-path="url(#clip0_0_1608)">
<path d="M25 44.4666C24.7885 44.4666 24.5745 44.3965 24.399 44.2539L19.5914 40.3873C19.363 40.2036 19.2308 39.9257 19.2308 39.6333V33.8333H21.1539V39.1693L25 42.2626L28.8462 39.1693V33.8333H30.7692V39.6333C30.7692 39.9257 30.637 40.206 30.4087 40.3873L25.601 44.2539C25.4255 44.3941 25.2139 44.4666 25 44.4666Z" fill="#606060"/>
<path d="M0.961538 58.0001C0.430288 58.0001 0 57.5675 0 57.0334V47.3667C0 41.5039 4.74519 36.7334 10.5769 36.7334H20.1923C20.7236 36.7334 21.1538 37.166 21.1538 37.7001C21.1538 38.2341 20.7236 38.6667 20.1923 38.6667H10.5769C5.80529 38.6667 1.92308 42.5696 1.92308 47.3667V57.0334C1.92308 57.5675 1.49279 58.0001 0.961538 58.0001Z" fill="#606060"/>
<path d="M49.0385 58.0001C48.5072 58.0001 48.0769 57.5675 48.0769 57.0334V47.3667C48.0769 42.5696 44.1947 38.6667 39.4231 38.6667H29.8077C29.2764 38.6667 28.8462 38.2341 28.8462 37.7001C28.8462 37.166 29.2764 36.7334 29.8077 36.7334H39.4231C45.2548 36.7334 50 41.5039 50 47.3667V57.0334C50 57.5675 49.5697 58.0001 49.0385 58.0001Z" fill="#606060"/>
<path d="M38.4616 42.5333C37.9303 42.5333 37.5 42.1008 37.5 41.5667C37.5 38.7488 35.9063 36.0736 33.125 34.2273C32.5673 33.8575 31.964 33.524 31.3341 33.2364C30.851 33.0165 30.637 32.4413 30.8558 31.9556C31.0745 31.4698 31.6442 31.2548 32.1298 31.4747C32.8534 31.8058 33.5433 32.1876 34.1851 32.6129C37.5144 34.8218 39.4231 38.0843 39.4231 41.5643C39.4231 42.0983 38.9928 42.5309 38.4616 42.5309V42.5333Z" fill="#606060"/>
<path d="M11.5385 47.3666C11.0072 47.3666 10.5769 46.934 10.5769 46.3999V41.5666C10.5769 38.0866 12.488 34.8241 15.8173 32.6153C16.4591 32.1899 17.1491 31.8057 17.8726 31.477C18.3558 31.2571 18.9255 31.4698 19.1466 31.9579C19.3654 32.4437 19.1515 33.0164 18.6683 33.2388C18.0385 33.5263 17.4351 33.8598 16.8774 34.2296C14.0962 36.0759 12.5 38.7512 12.5 41.569V46.4023C12.5 46.9364 12.0697 47.369 11.5385 47.369V47.3666Z" fill="#606060"/>
<path d="M43.2692 48.3334C42.738 48.3334 42.3077 47.9008 42.3077 47.3668C42.3077 44.7012 40.5817 42.5334 38.4615 42.5334C36.3413 42.5334 34.6154 44.7012 34.6154 47.3668C34.6154 47.9008 34.1851 48.3334 33.6538 48.3334C33.1226 48.3334 32.6923 47.9008 32.6923 47.3668C32.6923 43.6354 35.2812 40.6001 38.4615 40.6001C41.6418 40.6001 44.2308 43.6354 44.2308 47.3668C44.2308 47.9008 43.8005 48.3334 43.2692 48.3334Z" fill="#606060"/>
<path d="M33.6538 53.1667C32.0625 53.1667 30.7692 51.8665 30.7692 50.2667C30.7692 48.6669 32.0625 47.3667 33.6538 47.3667C35.2452 47.3667 36.5385 48.6669 36.5385 50.2667C36.5385 51.8665 35.2452 53.1667 33.6538 53.1667ZM33.6538 49.3C33.1226 49.3 32.6923 49.7326 32.6923 50.2667C32.6923 50.8008 33.1226 51.2334 33.6538 51.2334C34.1851 51.2334 34.6154 50.8008 34.6154 50.2667C34.6154 49.7326 34.1851 49.3 33.6538 49.3Z" fill="#606060"/>
<path d="M43.2692 53.1667C41.6779 53.1667 40.3846 51.8665 40.3846 50.2667C40.3846 48.6669 41.6779 47.3667 43.2692 47.3667C44.8606 47.3667 46.1538 48.6669 46.1538 50.2667C46.1538 51.8665 44.8606 53.1667 43.2692 53.1667ZM43.2692 49.3C42.738 49.3 42.3077 49.7326 42.3077 50.2667C42.3077 50.8008 42.738 51.2334 43.2692 51.2334C43.8005 51.2334 44.2308 50.8008 44.2308 50.2667C44.2308 49.7326 43.8005 49.3 43.2692 49.3Z" fill="#606060"/>
<path d="M11.5385 54.1332C9.41828 54.1332 7.69232 52.3981 7.69232 50.2666C7.69232 48.1351 9.41828 46.3999 11.5385 46.3999C13.6587 46.3999 15.3846 48.1351 15.3846 50.2666C15.3846 52.3981 13.6587 54.1332 11.5385 54.1332ZM11.5385 48.3332C10.4784 48.3332 9.6154 49.2008 9.6154 50.2666C9.6154 51.3323 10.4784 52.1999 11.5385 52.1999C12.5986 52.1999 13.4616 51.3323 13.4616 50.2666C13.4616 49.2008 12.5986 48.3332 11.5385 48.3332Z" fill="#606060"/>
<path d="M42.3077 38.6667C41.7764 38.6667 41.3462 38.2341 41.3462 37.7V18.3667C41.3462 9.30417 34.0144 1.93333 25 1.93333C15.9856 1.93333 8.65385 9.30417 8.65385 18.3667V37.7C8.65385 38.2341 8.22356 38.6667 7.69231 38.6667C7.16106 38.6667 6.73077 38.2341 6.73077 37.7V18.3667C6.73077 8.23842 14.9255 0 25 0C35.0745 0 43.2692 8.23842 43.2692 18.3667V37.7C43.2692 38.2341 42.8389 38.6667 42.3077 38.6667Z" fill="#606060"/>
<path d="M25 35.7666C18.8966 35.7666 14.012 30.3991 12.6466 22.3106C11.2933 22.1994 9.9904 21.2037 9.35818 19.6836C8.6803 18.0476 9.1154 16.0973 10.3942 15.0461C10.9255 14.6086 11.6563 14.4443 12.351 14.6135C12.875 14.7391 13.2668 15.1814 13.8654 15.9451C14.6971 13.5646 17.0024 8.42922 21.8101 6.81972C22.2644 6.66989 22.7596 6.8753 22.9736 7.30305C23.0192 7.39489 27.6298 16.4356 35.5745 16.4356C35.8678 16.4356 36.0409 16.2496 36.4111 15.6937C36.7019 15.2563 37.0313 14.7609 37.6466 14.6135C38.3414 14.4467 39.0721 14.6086 39.6034 15.0461C40.8798 16.0973 41.3149 18.0476 40.637 19.6836C40.0072 21.2061 38.7043 22.2018 37.351 22.3106C35.9856 30.3991 31.101 35.7666 24.9976 35.7666H25ZM13.464 20.3023C13.9423 20.3023 14.351 20.6551 14.4159 21.1385C15.4255 28.7316 19.6779 33.8332 25.0024 33.8332C30.3269 33.8332 34.5793 28.7316 35.589 21.1385C35.6563 20.6334 36.1106 20.2685 36.6058 20.3023C36.7043 20.3096 36.7981 20.3289 36.8846 20.3627C37.6058 20.5126 38.4736 19.8891 38.8678 18.9369C39.2692 17.9654 38.9207 16.977 38.3894 16.5371C38.3462 16.5009 38.2813 16.4816 38.2116 16.4767C38.1539 16.5541 38.0769 16.6701 38.0144 16.7619C37.6154 17.3612 36.9495 18.3617 35.5793 18.3617C27.8317 18.3617 23.0793 11.3365 21.6827 8.93914C17.351 10.9329 15.6034 16.745 15.3822 17.5401C15.3317 18.3037 14.8918 18.5744 14.625 18.6662C13.7813 18.9611 13.2115 18.2288 12.4904 17.3008C12.2933 17.0471 11.9784 16.6435 11.8029 16.4743C11.7308 16.4743 11.6611 16.4961 11.6154 16.5347C11.0841 16.9721 10.7356 17.963 11.137 18.9345C11.5361 19.8963 12.4255 20.5222 13.1442 20.3555C13.226 20.3265 13.3101 20.3071 13.399 20.3023C13.4207 20.3023 13.4423 20.3023 13.464 20.3023Z" fill="#606060"/>
</g>
<defs>
<clipPath id="clip0_0_1608">
<rect width="50" height="58" fill="white"/>
</clipPath>
</defs>
</svg>
