<svg width="64" height="58" viewBox="0 0 64 58" fill="none" xmlns="http://www.w3.org/2000/svg">
<g clip-path="url(#clip0_0_1638)">
<path d="M34.0645 58C33.4942 58 33.0323 57.5446 33.0323 56.9824V49.8291C33.0323 46.2957 34.4284 42.9734 36.9626 40.4753L51.9149 25.7362C53.4555 24.2175 55.9639 24.2175 57.5045 25.7362C59.0452 27.2549 59.0452 29.7275 57.5045 31.2462L48.2142 40.4041C47.8116 40.8009 47.1587 40.8009 46.7536 40.4041C46.3484 40.0072 46.351 39.3636 46.7536 38.9643L56.0439 29.8064C56.7794 29.0814 56.7794 27.901 56.0439 27.176C55.3084 26.451 54.111 26.451 53.3755 27.176L38.4233 41.9151C36.2787 44.0291 35.0968 46.84 35.0968 49.8291V56.9824C35.0968 57.5446 34.6349 58 34.0645 58Z" fill="#606060"/>
<path d="M48.5161 57.9999C47.9458 57.9999 47.4839 57.5446 47.4839 56.9824V53.6474C47.4839 53.3803 47.5897 53.1259 47.7781 52.9351L59.2361 41.4318C60.9755 39.6842 61.9329 37.3616 61.9329 34.8915V13.1644C61.9329 12.0426 61.0065 11.1293 59.8684 11.1293C58.7303 11.1293 57.8039 12.0426 57.8039 13.1644V26.4561C57.8039 27.0183 57.342 27.4736 56.7716 27.4736C56.2013 27.4736 55.7394 27.0183 55.7394 26.4561V13.1644C55.7394 10.9207 57.5923 9.09424 59.8684 9.09424C62.1445 9.09424 63.9974 10.9207 63.9974 13.1644V34.889C63.9974 37.8984 62.8284 40.7271 60.7097 42.8563L49.5458 54.0646V56.9824C49.5458 57.5446 49.0839 57.9999 48.5136 57.9999H48.5161Z" fill="#606060"/>
<path d="M29.9355 58C29.3652 58 28.9033 57.5446 28.9033 56.9824V49.8291C28.9033 46.84 27.7213 44.0291 25.5768 41.9151L10.6245 27.176C9.88906 26.451 8.69164 26.451 7.95616 27.176C7.22067 27.901 7.22067 29.0814 7.95616 29.8064L17.2465 38.9643C17.6491 39.3611 17.6491 40.0047 17.2465 40.4041C16.8439 40.8035 16.191 40.8009 15.7858 40.4041L6.49551 31.2462C4.95487 29.7275 4.95487 27.2549 6.49551 25.7362C8.03616 24.2175 10.5445 24.2175 12.0852 25.7362L27.0374 40.4753C29.5716 42.9734 30.9678 46.2957 30.9678 49.8291V56.9824C30.9678 57.5446 30.5058 58 29.9355 58Z" fill="#606060"/>
<path d="M15.4839 57.9999C14.9135 57.9999 14.4516 57.5446 14.4516 56.9824V54.0646L3.28774 42.8563C1.16903 40.7271 0 37.8984 0 34.889V13.1644C0 10.9207 1.8529 9.09424 4.12903 9.09424C6.40516 9.09424 8.25806 10.9207 8.25806 13.1644V26.4561C8.25806 27.0183 7.79613 27.4736 7.22581 27.4736C6.65548 27.4736 6.19355 27.0183 6.19355 26.4561V13.1644C6.19355 12.0426 5.2671 11.1293 4.12903 11.1293C2.99097 11.1293 2.06452 12.0426 2.06452 13.1644V34.889C2.06452 37.3616 3.02194 39.6842 4.76129 41.4292L16.2194 52.9326C16.4077 53.1234 16.5135 53.3778 16.5135 53.6449V56.9799C16.5135 57.542 16.0516 57.9974 15.4813 57.9974L15.4839 57.9999Z" fill="#606060"/>
<path d="M32 36.6316C31.7368 36.6316 31.471 36.5324 31.2697 36.3339L13.7523 19.0866C11.6052 16.9777 10.4232 14.1718 10.4232 11.1828C10.4232 8.19377 11.6052 5.38535 13.7548 3.27649C15.8993 1.16509 18.751 0.00254386 21.7806 0.00254386C24.8103 0.00254386 27.6619 1.16509 29.809 3.27649L32 5.43368L34.191 3.27649C36.3329 1.16509 39.1845 0 42.2193 0C45.2542 0 48.1032 1.16509 50.2477 3.27903C52.3923 5.39044 53.5742 8.19886 53.5742 11.1828C53.5742 14.1668 52.3923 16.9752 50.2477 19.0866L32.7303 36.3339C32.529 36.5324 32.2658 36.6316 32 36.6316ZM21.7806 2.03763C19.3006 2.03763 16.9677 2.98903 15.2129 4.71886C13.4555 6.4436 12.4877 8.7407 12.4877 11.1828C12.4877 13.6249 13.4555 15.922 15.2103 17.6468L31.9974 34.1768L48.7845 17.6493C50.5393 15.922 51.5071 13.6249 51.5071 11.1854C51.5071 8.74579 50.5393 6.44868 48.7845 4.7214C47.0322 2.99158 44.6993 2.03763 42.2168 2.03763C39.7342 2.03763 37.4013 2.98903 35.649 4.71886L32.7277 7.59596C32.3252 7.99026 31.6723 7.99026 31.2671 7.59596L28.3458 4.7214C26.591 2.99412 24.2581 2.04018 21.7781 2.04018L21.7806 2.03763Z" fill="url(#paint0_linear_0_1638)"/>
<path d="M34.0645 24.4212H29.9355C29.3651 24.4212 28.9032 23.9658 28.9032 23.4036V20.351H25.8064C25.2361 20.351 24.7742 19.8956 24.7742 19.3334V15.2633C24.7742 14.7011 25.2361 14.2457 25.8064 14.2457H28.9032V11.1931C28.9032 10.6309 29.3651 10.1755 29.9355 10.1755H34.0645C34.6348 10.1755 35.0968 10.6309 35.0968 11.1931V14.2457H38.1935C38.7638 14.2457 39.2258 14.7011 39.2258 15.2633V19.3334C39.2258 19.8956 38.7638 20.351 38.1935 20.351H35.0968V23.4036C35.0968 23.9658 34.6348 24.4212 34.0645 24.4212ZM30.9677 22.3861H33.0322V19.3334C33.0322 18.7712 33.4942 18.3159 34.0645 18.3159H37.1613V16.2808H34.0645C33.4942 16.2808 33.0322 15.8254 33.0322 15.2633V12.2106H30.9677V15.2633C30.9677 15.8254 30.5058 16.2808 29.9355 16.2808H26.8387V18.3159H29.9355C30.5058 18.3159 30.9677 18.7712 30.9677 19.3334V22.3861Z" fill="url(#paint1_linear_0_1638)"/>
</g>
<defs>
<linearGradient id="paint0_linear_0_1638" x1="23.3431" y1="-4.05428" x2="46.6976" y2="4.55366" gradientUnits="userSpaceOnUse">
<stop stop-color="#88BCFF"/>
<stop offset="1" stop-color="#7691FF"/>
</linearGradient>
<linearGradient id="paint1_linear_0_1638" x1="29.1011" y1="8.59887" x2="37.1721" y2="11.1607" gradientUnits="userSpaceOnUse">
<stop stop-color="#88BCFF"/>
<stop offset="1" stop-color="#7691FF"/>
</linearGradient>
<clipPath id="clip0_0_1638">
<rect width="64" height="58" fill="white"/>
</clipPath>
</defs>
</svg>
