<svg width="9" height="9" viewBox="0 0 9 9" fill="none" xmlns="http://www.w3.org/2000/svg">
<path d="M3.82658 0.602817L4.27251 0.145294C4.46133 -0.0484314 4.76666 -0.0484314 4.95347 0.145294L8.85839 4.14965C9.0472 4.34337 9.0472 4.65663 8.85839 4.84829L4.95347 8.85471C4.76465 9.04843 4.45932 9.04843 4.27251 8.85471L3.82658 8.39718C3.63576 8.2014 3.63977 7.88196 3.83462 7.69029L6.25511 5.32436H0.482089C0.214931 5.32436 0 5.10385 0 4.82975V4.17025C0 3.89615 0.214931 3.67564 0.482089 3.67564H6.25511L3.83462 1.30971C3.63776 1.11804 3.63375 0.798603 3.82658 0.602817Z" fill="white"/>
</svg>
