<svg width="23" height="23" viewBox="0 0 23 23" fill="none" xmlns="http://www.w3.org/2000/svg">
<path d="M13.9694 8.84063V12.4908C13.9694 12.5833 13.8975 12.6551 13.8051 12.6551H13.2199C13.1634 12.6551 13.1121 12.6243 13.0864 12.5884L11.4127 10.3295V12.496C11.4127 12.5884 11.3408 12.6603 11.2484 12.6603H10.6632C10.5708 12.6603 10.4989 12.5884 10.4989 12.496V8.84576C10.4989 8.75335 10.5708 8.68148 10.6632 8.68148H11.2433C11.2946 8.68148 11.3511 8.70715 11.3768 8.75335L13.0504 11.0123V8.84576C13.0504 8.75335 13.1223 8.68148 13.2147 8.68148H13.8C13.8924 8.67634 13.9694 8.75335 13.9694 8.84063ZM9.7596 8.67634H9.17433C9.08192 8.67634 9.01005 8.74822 9.01005 8.84063V12.4908C9.01005 12.5833 9.08192 12.6551 9.17433 12.6551H9.7596C9.85201 12.6551 9.92389 12.5833 9.92389 12.4908V8.84063C9.92389 8.75335 9.85201 8.67634 9.7596 8.67634ZM8.34777 11.7362H6.75112V8.84063C6.75112 8.74822 6.67925 8.67634 6.58684 8.67634H6.00157C5.90916 8.67634 5.83728 8.74822 5.83728 8.84063V12.4908C5.83728 12.5371 5.85268 12.573 5.88349 12.6038C5.91429 12.6295 5.95023 12.65 5.99643 12.65H8.34264C8.43505 12.65 8.50692 12.5781 8.50692 12.4857V11.9004C8.50692 11.8132 8.43505 11.7362 8.34777 11.7362ZM17.0498 8.67634H14.7036C14.6163 8.67634 14.5393 8.74822 14.5393 8.84063V12.4908C14.5393 12.5781 14.6112 12.6551 14.7036 12.6551H17.0498C17.1422 12.6551 17.2141 12.5833 17.2141 12.4908V11.9056C17.2141 11.8132 17.1422 11.7413 17.0498 11.7413H15.4531V11.1252H17.0498C17.1422 11.1252 17.2141 11.0533 17.2141 10.9609V10.3705C17.2141 10.2781 17.1422 10.2063 17.0498 10.2063H15.4531V9.59018H17.0498C17.1422 9.59018 17.2141 9.51831 17.2141 9.42589V8.84063C17.2089 8.75335 17.1371 8.67634 17.0498 8.67634ZM23 4.19443V18.8415C22.9949 21.1415 21.1107 23.0051 18.8056 23H4.15849C1.85849 22.9949 -0.00512334 21.1056 1.05819e-05 18.8056V4.15849C0.00514451 1.85849 1.89443 -0.00512334 4.19443 1.05819e-05H18.8415C21.1415 0.00514451 23.0051 1.88929 23 4.19443ZM19.8375 10.4886C19.8375 6.74085 16.0795 3.6913 11.4641 3.6913C6.84867 3.6913 3.09063 6.74085 3.09063 10.4886C3.09063 13.8462 6.06831 16.6596 10.0933 17.1935C11.0739 17.404 10.9609 17.7634 10.7402 19.0828C10.7042 19.2933 10.5708 19.9094 11.4641 19.5346C12.3574 19.1598 16.2848 16.6955 18.0458 14.6728C19.2574 13.3379 19.8375 11.9877 19.8375 10.4886Z" fill="url(#paint0_linear_0_1730)"/>
<defs>
<linearGradient id="paint0_linear_0_1730" x1="6.88643" y1="-2.54557" x2="19.7649" y2="1.484" gradientUnits="userSpaceOnUse">
<stop stop-color="#88BCFF"/>
<stop offset="1" stop-color="#7691FF"/>
</linearGradient>
</defs>
</svg>
