<svg width="11" height="11" viewBox="0 0 11 11" fill="none" xmlns="http://www.w3.org/2000/svg">
<path d="M6.32307 10.2632L5.77804 10.8224C5.54726 11.0592 5.17409 11.0592 4.94576 10.8224L0.173083 5.92821C-0.0576949 5.69143 -0.0576949 5.30856 0.173083 5.07431L4.94577 0.177581C5.17654 -0.0591941 5.54972 -0.0591941 5.77804 0.177581L6.32307 0.736775C6.5563 0.97607 6.55139 1.3665 6.31325 1.60076L3.35487 4.49244L10.4108 4.49244C10.7373 4.49244 11 4.76196 11 5.09698L11 5.90302C11 6.23804 10.7373 6.50756 10.4108 6.50756L3.35487 6.50756L6.31325 9.39924C6.55384 9.6335 6.55875 10.0239 6.32307 10.2632Z" fill="url(#paint0_linear_314_38)"/>
<defs>
<linearGradient id="paint0_linear_314_38" x1="7.70649" y1="12.2174" x2="1.5472" y2="10.2903" gradientUnits="userSpaceOnUse">
<stop stop-color="#88BCFF"/>
<stop offset="1" stop-color="#7691FF"/>
</linearGradient>
</defs>
</svg>
