<svg width="11" height="11" viewBox="0 0 11 11" fill="none" xmlns="http://www.w3.org/2000/svg">
<path d="M4.67693 0.736776L5.22196 0.177582C5.45274 -0.059194 5.82591 -0.059194 6.05424 0.177582L10.8269 5.07179C11.0577 5.30856 11.0577 5.69144 10.8269 5.92569L6.05424 10.8224C5.82346 11.0592 5.45028 11.0592 5.22196 10.8224L4.67693 10.2632C4.4437 10.0239 4.44861 9.6335 4.68675 9.39924L7.64513 6.50756H0.58922C0.262694 6.50756 0 6.23804 0 5.90302V5.09698C0 4.76196 0.262694 4.49244 0.58922 4.49244H7.64513L4.68675 1.60076C4.44616 1.3665 4.44125 0.976071 4.67693 0.736776Z" fill="url(#paint0_linear_314_40)"/>
<defs>
<linearGradient id="paint0_linear_314_40" x1="3.29351" y1="-1.21745" x2="9.4528" y2="0.709739" gradientUnits="userSpaceOnUse">
<stop stop-color="#88BCFF"/>
<stop offset="1" stop-color="#7691FF"/>
</linearGradient>
</defs>
</svg>
